<svg id="Capa_1" enable-background="new 0 0 512 512" height="512" viewBox="0 0 512 512" width="512" xmlns="http://www.w3.org/2000/svg"><g><path d="m385.381 102.82c4.143 0 7.5-3.357 7.5-7.5v-10.082c0-4.143-3.357-7.5-7.5-7.5s-7.5 3.357-7.5 7.5v10.082c0 4.142 3.358 7.5 7.5 7.5z"/><path d="m466.98 169.418c-4.143 0-7.5 3.357-7.5 7.5s3.357 7.5 7.5 7.5h10.081c4.143 0 7.5-3.357 7.5-7.5s-3.357-7.5-7.5-7.5z"/><path d="m293.701 169.418c-4.143 0-7.5 3.357-7.5 7.5s3.357 7.5 7.5 7.5h10.082c4.143 0 7.5-3.357 7.5-7.5s-3.357-7.5-7.5-7.5z"/><path d="m418.275 408.987c-13.32 0-24.157 10.837-24.157 24.156s10.837 24.156 24.157 24.156c13.319 0 24.156-10.837 24.156-24.156s-10.837-24.156-24.156-24.156zm0 33.312c-5.05 0-9.157-4.107-9.157-9.156s4.107-9.156 9.157-9.156c5.049 0 9.156 4.107 9.156 9.156s-4.107 9.156-9.156 9.156z"/><path d="m144.424 433.143c0 13.319 10.837 24.156 24.157 24.156s24.156-10.837 24.156-24.156-10.836-24.156-24.156-24.156-24.157 10.836-24.157 24.156zm33.313 0c0 5.049-4.107 9.156-9.156 9.156s-9.157-4.107-9.157-9.156 4.108-9.156 9.157-9.156 9.156 4.107 9.156 9.156z"/><path d="m219.501 318.031c8.467-8.241 9.443-22.576-.175-31.936l-31.174-30.345c-11.246-10.942-29.299-10.7-40.244.544l-5.838 5.998c-2.889 2.969-2.825 7.717.143 10.605l30.05 29.25-30.05 29.249c-1.425 1.387-2.241 3.284-2.268 5.272-.027 1.989.738 3.907 2.125 5.333l5.838 5.998c10.981 11.281 28.995 11.495 40.244.543zm-60.844 19.507-.607-.623 30.197-29.393c1.45-1.411 2.269-3.35 2.269-5.374s-.818-3.963-2.269-5.374l-30.197-29.394.607-.623c5.178-5.319 13.715-5.434 19.033-.258l31.174 30.345c3.327 3.238 2.882 7.802.175 10.438l-31.349 30.513c-5.293 5.151-13.813 5.106-19.033-.257z"/><path d="m377.881 176.918c0 4.143 3.357 7.5 7.5 7.5h25.506c4.143 0 7.5-3.357 7.5-7.5s-3.357-7.5-7.5-7.5h-18.006v-46.706c0-4.143-3.357-7.5-7.5-7.5s-7.5 3.357-7.5 7.5z"/><path d="m128.121 112.82h129.141c4.143 0 7.5-3.357 7.5-7.5s-3.357-7.5-7.5-7.5h-129.141c-4.142 0-7.5 3.357-7.5 7.5s3.358 7.5 7.5 7.5z"/><path d="m96.817 151.567h134.052c4.142 0 7.5-3.357 7.5-7.5s-3.358-7.5-7.5-7.5h-134.052c-4.142 0-7.5 3.357-7.5 7.5s3.358 7.5 7.5 7.5z"/><path d="m173.508 171.121c-4.142 0-7.5 3.357-7.5 7.5s3.358 7.5 7.5 7.5h66.705c4.142 0 7.5-3.357 7.5-7.5s-3.358-7.5-7.5-7.5z"/><path d="m110.275 171.121c-4.142 0-7.5 3.357-7.5 7.5s3.358 7.5 7.5 7.5h33.292c4.142 0 7.5-3.357 7.5-7.5s-3.358-7.5-7.5-7.5z"/><path d="m7.5 289.406h27.43c4.142 0 7.5-3.357 7.5-7.5s-3.358-7.5-7.5-7.5h-27.43c-4.142 0-7.5 3.357-7.5 7.5s3.358 7.5 7.5 7.5z"/><path d="m27.5 355.47h-20c-4.142 0-7.5 3.357-7.5 7.5s3.358 7.5 7.5 7.5h20c4.142 0 7.5-3.357 7.5-7.5s-3.358-7.5-7.5-7.5z"/><path d="m115.733 291.959h-26.748c-4.142 0-7.5 3.357-7.5 7.5s3.358 7.5 7.5 7.5h26.748c4.142 0 7.5-3.357 7.5-7.5s-3.358-7.5-7.5-7.5z"/><path d="m456.009 282.004c34.75-23.411 55.991-62.863 55.991-105.087 0-20.068-4.565-39.271-13.57-57.072-1.869-3.696-6.382-5.177-10.077-3.308-3.696 1.869-5.178 6.382-3.308 10.077 7.932 15.684 11.955 32.609 11.955 50.303 0 37.974-19.494 73.403-51.238 93.873l-43.665-47.781c-5.072-5.552-12.295-8.735-19.814-8.735h-102.106c-4.256-11.968-6.415-24.511-6.415-37.357 0-61.547 50.072-111.618 111.619-111.618 31.926 0 62.391 13.724 83.583 37.653 2.744 3.1 7.484 3.39 10.587.642 3.101-2.746 3.389-7.486.642-10.587-11.018-12.442-24.252-22.442-38.838-29.635v-25.401c0-9.23-7.509-16.739-16.739-16.739h-78.469c-9.23 0-16.739 7.509-16.739 16.739v25.394c-41.819 20.698-70.646 63.818-70.646 113.552 0 12.784 1.892 25.304 5.617 37.357h-191.251c-9.567 0-17.426 7.396-18.193 16.77h-27.435c-4.142 0-7.5 3.357-7.5 7.5s3.358 7.5 7.5 7.5h27.359v72.492h-47.359c-4.142 0-7.5 3.357-7.5 7.5s3.358 7.5 7.5 7.5h47.359v21.937c-4.109.038-7.43 3.378-7.43 7.496s3.32 7.458 7.43 7.496v53.052c0 7.874 6.406 14.279 14.279 14.279h20.179v5.221h-23.4c-4.142 0-7.5 3.357-7.5 7.5s3.358 7.5 7.5 7.5h30.9c4.142 0 7.5-3.357 7.5-7.5v-12.721h6.843c2.38 29.604 27.215 52.97 57.421 52.97 9.968 0 19.808-2.601 28.455-7.521 3.6-2.049 4.857-6.628 2.809-10.228-2.048-3.601-6.626-4.856-10.228-2.81-6.39 3.637-13.665 5.559-21.036 5.559-23.503 0-42.625-19.121-42.625-42.625s19.122-42.625 42.625-42.625 42.625 19.121 42.625 42.625c0 6.408-1.389 12.571-4.129 18.318-1.783 3.739-.196 8.215 3.542 9.997 3.74 1.782 8.215.196 9.998-3.542 3.039-6.374 4.828-13.125 5.383-20.118h134.854c2.38 29.604 27.215 52.97 57.421 52.97s55.04-23.366 57.421-52.97h15.439c11.505 0 20.865-9.36 20.865-20.865v-63.27c0-6.701-2.489-13.116-7.01-18.062zm-111.601-244.033c0-.959.78-1.739 1.739-1.739h78.469c.959 0 1.739.78 1.739 1.739v19.166c-13.061-4.473-26.89-6.837-40.974-6.837-14.333 0-28.116 2.398-40.974 6.807v-19.136zm46.617 195.158 78.05 85.407h-55.947c-4.143 0-7.5 3.357-7.5 7.5s3.357 7.5 7.5 7.5h69.655l11.135 12.185c4.54 4.968 2.632 10.359 3.082 16.08h-5.782c-4.143 0-7.5 3.357-7.5 7.5s3.357 7.5 7.5 7.5h5.782v11.098h-43.101c-9.812-7.743-22.183-12.381-35.623-12.381s-25.811 4.638-35.623 12.381h-81.717v-158.624h32.347v89.167c0 8.323 6.771 15.095 15.094 15.095h34.767c4.143 0 7.5-3.357 7.5-7.5s-3.357-7.5-7.5-7.5h-34.767c-.052 0-.094-.043-.094-.095v-89.167h34.002c3.315 0 6.502 1.405 8.74 3.854zm-29.427 189.669h-60.664v-19.899h68.318c-3.712 5.994-6.346 12.717-7.654 19.899zm-143.995-19.899h68.331v19.899h-60.677c-1.308-7.182-3.942-13.905-7.654-19.899zm-147.744 0h49.698c-3.712 5.994-6.346 12.717-7.654 19.899h-42.044zm63.098-15h-63.098v-17.429h32.5c4.142 0 7.5-3.357 7.5-7.5s-3.358-7.5-7.5-7.5h-32.5v-21.934h32.5c4.142 0 7.5-3.357 7.5-7.5s-3.358-7.5-7.5-7.5h-32.5v-85.992c0-1.803 1.466-3.27 3.269-3.27h212.806v158.624h-81.73c-9.812-7.743-22.183-12.381-35.623-12.381s-25.811 4.639-35.624 12.382zm285.318 87.869c-23.504 0-42.625-19.121-42.625-42.625s19.121-42.625 42.625-42.625 42.625 19.121 42.625 42.625-19.121 42.625-42.625 42.625zm72.859-52.97h-16.183c-1.308-7.182-3.942-13.905-7.654-19.899h29.703v14.034c0 3.234-2.631 5.865-5.866 5.865z"/></g></svg>